<?xml version="1.0" encoding="UTF-8"?>
<svg xmlns="http://www.w3.org/2000/svg" xmlns:xlink="http://www.w3.org/1999/xlink" width="50px" height="50px" viewBox="0 0 50 50" version="1.1">
<g id="surface1">
<path style=" stroke:none;fill-rule:nonzero;fill:rgb(0%,0%,0%);fill-opacity:1;" d="M 8.152344 7.214844 C 7.683594 7.429688 7.382812 7.742188 7.175781 8.222656 C 6.992188 8.679688 6.992188 8.992188 7.175781 9.453125 C 7.285156 9.707031 9.601562 12.078125 14.921875 17.402344 L 22.507812 25 L 14.875 32.636719 C 6.648438 40.878906 6.914062 40.585938 7.070312 41.4375 C 7.195312 42.128906 7.871094 42.804688 8.5625 42.929688 C 9.414062 43.085938 9.121094 43.347656 17.363281 35.128906 L 25 27.492188 L 32.648438 35.128906 C 40.878906 43.347656 40.585938 43.085938 41.4375 42.929688 C 42.128906 42.804688 42.804688 42.128906 42.929688 41.4375 C 43.085938 40.585938 43.347656 40.878906 35.128906 32.636719 L 27.492188 25 L 35.128906 17.351562 C 43.347656 9.121094 43.085938 9.414062 42.929688 8.5625 C 42.804688 7.871094 42.128906 7.195312 41.4375 7.070312 C 40.585938 6.914062 40.878906 6.648438 32.636719 14.875 L 25 22.507812 L 17.402344 14.921875 C 12.078125 9.601562 9.707031 7.285156 9.453125 7.175781 C 8.976562 6.980469 8.632812 6.992188 8.152344 7.214844 Z M 8.152344 7.214844 "/>
</g>
</svg>
